/* XPM */
static char* XPM_PlasmaShop[] = {
"32 32 49 1",
" 	c None",
".	c #5C769C",
"+	c #6476A4",
"@	c #64769C",
"#	c #FCFEFC",
"$	c #F4F6FC",
"%	c #8C9EBC",
"&	c #8496B4",
"*	c #CCD6E4",
"=	c #647AA4",
"-	c #94A2BC",
";	c #C4CEDC",
">	c #E4EAEC",
",	c #7C8EAC",
"'	c #DCDEE4",
")	c #7486AC",
"!	c #ECEEF4",
"~	c #DCE2EC",
"{	c #94A6C4",
"]	c #5C6E94",
"^	c #BCC6D4",
"/	c #CCD2DC",
"(	c #6C82A4",
"_	c #5C7294",
":	c #ECF2F4",
"<	c #F4F6F4",
"[	c #B4BED4",
"}	c #B4BACC",
"|	c #F4FAFC",
"1	c #B4C2D4",
"2	c #A4B2CC",
"3	c #7C8EB4",
"4	c #9CAAC4",
"5	c #D4D6E4",
"6	c #6C7EA4",
"7	c #ACBACC",
"8	c #A4AEC4",
"9	c #8C9AB4",
"0	c #ACB6CC",
"a	c #9CA6C4",
"b	c #D4DEE4",
"c	c #748AAC",
"d	c #949EBC",
"e	c #7C92B4",
"f	c #6C82AC",
"g	c #E4EAF4",
"h	c #DCDEEC",
"i	c #E4E6EC",
"j	c #BCC6DC",
".+@.+@.+@.+@.+@.@.@.@.@...@.+@.@",
".##############$%.&##*=@+@..@...",
"@###############-.&$#;=@..+.@.+.",
".##############>,+&##').@.@..@.@",
"+#############!%.@,~#${]..+...@.",
".#############;...=^##/.+...@..@",
"@#############'(+_.%:#<[@.@+@.@.",
".#######<$####$^%=.@}$|#1)._..=@",
"+#####<[&2!######^=.3/###!^{%45.",
".####$;6.67:#$4&~#%@+3;$#######+",
".#<##>-@..(489+.6$8.@.(0~######.",
"@a%[^{....@+..@@.^&+].@+6-^bb/^.",
"..@..@@c&d-%%)...{;,(e,=...=6+.@",
"@....([~$###<>^f.@g#*!<;,._..f,.",
"..+@4h<#####|##i8.._=&$#^=+.&b!.",
"@.=0<#$<h70;~###$0=@+.4#~&6&b##+",
"..-<$$b%@++@)2g<$<4_@.-##bh!###.",
"@)h|#;(..@..._-!##g&.)~########@",
".2#<h(.+...=...a<#<2.,!########.",
"@b##4.+@+.+@+..@j|#~6=8$#######+",
".$#i(+..@@.+.@..d##|9.]{!######.",
"@##*=@.+...@.@.+9$##2@]];######@",
".$#/6.+..+..+...%$##8+@.[<#####.",
"@##h(.@.@.@.@.+_4###a.=&b<#####+",
".~#${]@.+..@...=^##>e.-~#######.",
"@1##/....@.@.@.9g##;@c~$#######@",
".%!#|}+@.+@...)b#<!4+&#########.",
"@.[<#|^)._..=9~#<#^6@ci########+",
"..,5###!^{%85|$#$b3...[########.",
"@+.,;$##########/e...(;########@",
"..+.f0~#######i2f]6&&*#########@",
"..@.@...@.@...@.@...@.@...@.@..."};
