/* XPM */
/* Author: Michael Hansen */
static const char* XPM_point[] = {
"16 16 2 1",
"  c None",
"X c #000000",
"                ",
"                ",
"     X       X  ",
"                ",
"                ",
"                ",
" X       X      ",
"                ",
"                ",
"                ",
"     X       X  ",
"                ",
"                ",
"                ",
" X       X      ",
"                "
};

/* XPM */
/* Author: Michael Hansen */
static const char* XPM_wire[] = {
"16 16 3 1",
"  c None",
"X c #000000",
", c #C0C0C0",
"                ",
"                ",
"     XXXXXXXXX  ",
"    X,      XX  ",
"   X ,     X X  ",
"  X  ,    X  X  ",
" XXXXXXXXX   X  ",
" X   ,   X   X  ",
" X   ,   X   X  ",
" X   ,   X   X  ",
" X   ,,,,X,,,X  ",
" X  ,    X  X   ",
" X ,     X X    ",
" X,      XX     ",
" XXXXXXXXX      ",
"                "
};

/* XPM */
/* Author: Michael Hansen */
static const char* XPM_flat[] = {
"16 16 6 1",
"  c None",
"X c #000000",
", c #C0C0C0",
"R c #FF0000",
"G c #00FF00",
"B c #0000FF",
"                ",
"                ",
"     XXXXXXXXX  ",
"    XGGGGGGGXX  ",
"   XGGGGGGGXRX  ",
"  XGGGGGGGXRRX  ",
" XXXXXXXXXRRRX  ",
" XBBBBBBBXRRRX  ",
" XBBBBBBBXRRRX  ",
" XBBBBBBBXRRRX  ",
" XBBBBBBBXRRRX  ",
" XBBBBBBBXRRX   ",
" XBBBBBBBXRX    ",
" XBBBBBBBXX     ",
" XXXXXXXXX      ",
"                "
};

/* XPM */
/* Author: Michael Hansen */
static const char* XPM_tex[] = {
"16 16 7 1",
"  c None",
"X c #000000",
", c #C0C0C0",
"1 c #7C401D",
"2 c #62884C",
"3 c #41843F",
"4 c #684229",
"                ",
"                ",
"     XXXXXXXXX  ",
"    X1121312XX  ",
"   X1132311X1X  ",
"  X1211342X12X  ",
" XXXXXXXXX111X  ",
" X1132111X411X  ",
" X1121131X131X  ",
" X1111434X112X  ",
" X1111141X111X  ",
" X1211123X41X   ",
" X1321141X1X    ",
" X1432111XX     ",
" XXXXXXXXX      ",
"                "
};
