/* XPM */
/* Author: Michael Hansen */
static char* XPM_coords[] = {
"16 16 3 1",
"  c None",
". c #C0C0C0",
"X c #808080",
"                ",
"   .   .   .    ",
"  XXX  .   .    ",
" .XXX.........  ",
"  XXX  .   .    ",
"   .   .   .    ",
"   .   .  XXX   ",
" .........XXX.  ",
"   .   .  XXX   ",
"   .   .   .    ",
"   .  XXX  .    ",
" .....XXX.....  ",
"   .  XXX  .    ",
"   .   .   .    ",
"                ",
"                "
};

/* XPM */
/* Borrowed from Microsoft */
static char* XPM_sound[] = {
"16 16 7 1",
"  c None",
"X c #000000",
"W c #FFFFFF",
". c #C0C0C0",
", c #808080",
"Y c #FFFF00",
"y c #808000",
"       XX       ",
"      y,X,      ",
"     yYX..      ",
"    yY,,.W,   , ",
"   yYWX.WW,  ,  ",
" yyYWYX.WW, ,   ",
"yW.WYWXXWW,     ",
"yY.YWYX.XW,     ",
"yY.WYWX,XW, ,,, ",
"Xy,YWYXXWW,     ",
" XXyYWX.WW,     ",
"   XyYX.WW, ,   ",
"    Xy,,WW,  ,  ",
"     XyX..,   , ",
"      XyX,      ",
"       XX       "
};

/* XPM */
/* Author: Michael Hansen */
static char* XPM_synch[] = {
"16 16 2 1",
"  c None",
"X c #FF0000",
"                ",
"                ",
"     XXXXX  X   ",
"    XXXXXXXXX   ",
"   XXX   XXXX   ",
"  XXX    XXXX   ",
"   X    XXXXX   ",
"                ",
"                ",
"  XXXXX    XX   ",
"  XXXX    XXX   ",
"  XXXX   XXX    ",
"  XXXXXXXXX     ",
"  X  XXXXX      ",
"                ",
"                "
};

/* XPM */
/* Borrowed from Python */
static char* XPM_python[] = {
"16 16 34 1",
"  c None",
"X c #000000",
". c #FFFFFF",
"R c #FF0000",
"G c #00FF00",
"B c #0000FF",
"d c #a02000",
"r c #800000",
"D c #602000",
"x c #402000",
"o c #404000",
"O c #606000",
"1 c #608000",
"Y c #808000",
"y c #a0a000",
"p c #a08000",
"j c #a06000",
"P c #806000",
"u c #004000",
"e c #206000",
"E c #006000",
"g c #008000",
"f c #00a000",
"N c #408000",
"2 c #40a000",
"n c #60a000",
"l c #80a000",
"L c #40e000",
"F c #20c000",
"z c #00e000",
"Z c #20e000",
"3 c #60c000",
"U c #60e000",
"a c #a0a0c0",
"   xxox         ",
"   yxyY         ",
"  XayBoX        ",
"  XyOyOXX       ",
" oyYYYpNPYX     ",
"oOOYpnGGgpy     ",
"elnnGzXLEpYo    ",
"uZGGXXUXUZpo    ",
"XXRxeZuXGnpx    ",
"XRZZfXxFnpYX    ",
"drXXXDGnpYX     ",
" DXx1GjYOX     x",
"   zGjYOOyOXyOPo",
"   UZjYYpYYyO22X",
"   F3GLNFLLoXXX ",
"    geuXXXXX    "
};
